<mxfile host="app.diagrams.net" modified="2020-10-20T10:52:25.466Z" agent="5.0 (Windows)" etag="4aaFJEBIyLpzj82rcpYI" version="13.8.0" type="github" pages="2">
  <diagram id="clPYqx6iupSRroHbjO-H" name="Page-1">
    <mxGraphModel dx="2629" dy="577" grid="1" gridSize="10" guides="1" tooltips="1" connect="1" arrows="1" fold="1" page="1" pageScale="1" pageWidth="1169" pageHeight="827" math="0" shadow="0">
      <root>
        <mxCell id="0" />
        <mxCell id="1" parent="0" />
        <mxCell id="8rR2oTFeSmsldMVFy4yS-31" value="" style="strokeWidth=2;html=1;shape=mxgraph.flowchart.annotation_2;align=left;labelPosition=right;pointerEvents=1;rotation=90;" parent="1" vertex="1">
          <mxGeometry x="-774.87" y="-99.53" width="43.75" height="620" as="geometry" />
        </mxCell>
        <mxCell id="8rR2oTFeSmsldMVFy4yS-59" style="edgeStyle=orthogonalEdgeStyle;rounded=0;orthogonalLoop=1;jettySize=auto;html=1;" parent="1" source="8rR2oTFeSmsldMVFy4yS-33" target="8rR2oTFeSmsldMVFy4yS-39" edge="1">
          <mxGeometry relative="1" as="geometry">
            <Array as="points">
              <mxPoint x="-1020" y="320" />
              <mxPoint x="-563" y="320" />
            </Array>
          </mxGeometry>
        </mxCell>
        <mxCell id="8rR2oTFeSmsldMVFy4yS-33" value="Buildings" style="shape=parallelogram;html=1;strokeWidth=2;perimeter=parallelogramPerimeter;whiteSpace=wrap;rounded=1;arcSize=12;size=0.23;" parent="1" vertex="1">
          <mxGeometry x="-1056" y="227.34000000000003" width="100" height="60" as="geometry" />
        </mxCell>
        <mxCell id="8rR2oTFeSmsldMVFy4yS-34" value="Constraint layer" style="text;html=1;strokeColor=none;fillColor=none;align=center;verticalAlign=middle;whiteSpace=wrap;rounded=0;" parent="1" vertex="1">
          <mxGeometry x="-800.49" y="157.34000000000003" width="95" height="30" as="geometry" />
        </mxCell>
        <mxCell id="8rR2oTFeSmsldMVFy4yS-58" style="edgeStyle=orthogonalEdgeStyle;rounded=0;orthogonalLoop=1;jettySize=auto;html=1;" parent="1" source="8rR2oTFeSmsldMVFy4yS-35" target="8rR2oTFeSmsldMVFy4yS-39" edge="1">
          <mxGeometry relative="1" as="geometry">
            <Array as="points">
              <mxPoint x="-806" y="320" />
              <mxPoint x="-563" y="320" />
            </Array>
          </mxGeometry>
        </mxCell>
        <mxCell id="8rR2oTFeSmsldMVFy4yS-35" value="Green belt" style="shape=parallelogram;html=1;strokeWidth=2;perimeter=parallelogramPerimeter;whiteSpace=wrap;rounded=1;arcSize=12;size=0.23;" parent="1" vertex="1">
          <mxGeometry x="-856" y="227.34000000000003" width="100" height="60" as="geometry" />
        </mxCell>
        <mxCell id="8rR2oTFeSmsldMVFy4yS-56" style="edgeStyle=orthogonalEdgeStyle;rounded=0;orthogonalLoop=1;jettySize=auto;html=1;" parent="1" source="8rR2oTFeSmsldMVFy4yS-36" target="8rR2oTFeSmsldMVFy4yS-39" edge="1">
          <mxGeometry relative="1" as="geometry">
            <Array as="points">
              <mxPoint x="-706" y="320" />
              <mxPoint x="-563" y="320" />
            </Array>
          </mxGeometry>
        </mxCell>
        <mxCell id="8rR2oTFeSmsldMVFy4yS-36" value="Water bodies" style="shape=parallelogram;html=1;strokeWidth=2;perimeter=parallelogramPerimeter;whiteSpace=wrap;rounded=1;arcSize=12;size=0.23;" parent="1" vertex="1">
          <mxGeometry x="-756" y="227.34000000000003" width="100" height="60" as="geometry" />
        </mxCell>
        <mxCell id="8rR2oTFeSmsldMVFy4yS-55" style="edgeStyle=orthogonalEdgeStyle;rounded=0;orthogonalLoop=1;jettySize=auto;html=1;" parent="1" source="8rR2oTFeSmsldMVFy4yS-37" target="8rR2oTFeSmsldMVFy4yS-39" edge="1">
          <mxGeometry relative="1" as="geometry">
            <Array as="points">
              <mxPoint x="-606" y="320" />
              <mxPoint x="-563" y="320" />
            </Array>
          </mxGeometry>
        </mxCell>
        <mxCell id="8rR2oTFeSmsldMVFy4yS-37" value="Nature conservation areas" style="shape=parallelogram;html=1;strokeWidth=2;perimeter=parallelogramPerimeter;whiteSpace=wrap;rounded=1;arcSize=12;size=0.23;" parent="1" vertex="1">
          <mxGeometry x="-656" y="227.34000000000003" width="100" height="60" as="geometry" />
        </mxCell>
        <mxCell id="8rR2oTFeSmsldMVFy4yS-54" style="edgeStyle=orthogonalEdgeStyle;rounded=0;orthogonalLoop=1;jettySize=auto;html=1;" parent="1" source="8rR2oTFeSmsldMVFy4yS-38" target="8rR2oTFeSmsldMVFy4yS-39" edge="1">
          <mxGeometry relative="1" as="geometry">
            <Array as="points">
              <mxPoint x="-506" y="320" />
              <mxPoint x="-563" y="320" />
            </Array>
          </mxGeometry>
        </mxCell>
        <mxCell id="8rR2oTFeSmsldMVFy4yS-38" value="Historic conservation areas" style="shape=parallelogram;html=1;strokeWidth=2;perimeter=parallelogramPerimeter;whiteSpace=wrap;rounded=1;arcSize=12;size=0.23;" parent="1" vertex="1">
          <mxGeometry x="-556" y="227.34000000000003" width="100" height="60" as="geometry" />
        </mxCell>
        <mxCell id="8rR2oTFeSmsldMVFy4yS-50" value="" style="edgeStyle=orthogonalEdgeStyle;rounded=0;orthogonalLoop=1;jettySize=auto;html=1;" parent="1" source="8rR2oTFeSmsldMVFy4yS-39" target="8rR2oTFeSmsldMVFy4yS-48" edge="1">
          <mxGeometry relative="1" as="geometry" />
        </mxCell>
        <mxCell id="8rR2oTFeSmsldMVFy4yS-65" style="edgeStyle=orthogonalEdgeStyle;rounded=0;orthogonalLoop=1;jettySize=auto;html=1;" parent="1" source="8rR2oTFeSmsldMVFy4yS-39" target="8rR2oTFeSmsldMVFy4yS-64" edge="1">
          <mxGeometry relative="1" as="geometry">
            <Array as="points">
              <mxPoint x="-563" y="507.34000000000003" />
            </Array>
          </mxGeometry>
        </mxCell>
        <mxCell id="8rR2oTFeSmsldMVFy4yS-39" value="Urban Development Model (UDM)" style="rounded=1;whiteSpace=wrap;html=1;absoluteArcSize=1;arcSize=14;strokeWidth=2;" parent="1" vertex="1">
          <mxGeometry x="-613" y="379.84000000000003" width="100" height="100" as="geometry" />
        </mxCell>
        <mxCell id="8rR2oTFeSmsldMVFy4yS-60" style="edgeStyle=orthogonalEdgeStyle;rounded=0;orthogonalLoop=1;jettySize=auto;html=1;" parent="1" source="8rR2oTFeSmsldMVFy4yS-40" target="8rR2oTFeSmsldMVFy4yS-39" edge="1">
          <mxGeometry relative="1" as="geometry">
            <Array as="points">
              <mxPoint x="-353" y="430.34000000000003" />
            </Array>
          </mxGeometry>
        </mxCell>
        <mxCell id="8rR2oTFeSmsldMVFy4yS-40" value="&lt;div&gt;Proximity to&lt;/div&gt;&lt;div&gt; roads&lt;/div&gt;" style="shape=parallelogram;html=1;strokeWidth=2;perimeter=parallelogramPerimeter;whiteSpace=wrap;rounded=1;arcSize=12;size=0.23;" parent="1" vertex="1">
          <mxGeometry x="-403" y="227.34000000000003" width="100" height="60" as="geometry" />
        </mxCell>
        <mxCell id="8rR2oTFeSmsldMVFy4yS-61" style="edgeStyle=orthogonalEdgeStyle;rounded=0;orthogonalLoop=1;jettySize=auto;html=1;" parent="1" source="8rR2oTFeSmsldMVFy4yS-41" target="8rR2oTFeSmsldMVFy4yS-39" edge="1">
          <mxGeometry relative="1" as="geometry">
            <Array as="points">
              <mxPoint x="-273" y="257.34000000000003" />
              <mxPoint x="-273" y="430.34000000000003" />
            </Array>
          </mxGeometry>
        </mxCell>
        <mxCell id="8rR2oTFeSmsldMVFy4yS-41" value="&lt;div&gt;Proximity to&lt;/div&gt;&lt;div&gt;rail stations&lt;br&gt;&lt;/div&gt;" style="shape=parallelogram;html=1;strokeWidth=2;perimeter=parallelogramPerimeter;whiteSpace=wrap;rounded=1;arcSize=12;size=0.23;" parent="1" vertex="1">
          <mxGeometry x="-313" y="227.34000000000003" width="100" height="60" as="geometry" />
        </mxCell>
        <mxCell id="8rR2oTFeSmsldMVFy4yS-52" style="edgeStyle=orthogonalEdgeStyle;rounded=0;orthogonalLoop=1;jettySize=auto;html=1;" parent="1" source="8rR2oTFeSmsldMVFy4yS-42" target="8rR2oTFeSmsldMVFy4yS-39" edge="1">
          <mxGeometry relative="1" as="geometry">
            <Array as="points">
              <mxPoint x="-683" y="417.34000000000003" />
              <mxPoint x="-683" y="430.34000000000003" />
            </Array>
          </mxGeometry>
        </mxCell>
        <mxCell id="8rR2oTFeSmsldMVFy4yS-42" value="Population boundaries" style="shape=parallelogram;html=1;strokeWidth=2;perimeter=parallelogramPerimeter;whiteSpace=wrap;rounded=1;arcSize=12;size=0.23;" parent="1" vertex="1">
          <mxGeometry x="-913" y="387.34000000000003" width="100" height="60" as="geometry" />
        </mxCell>
        <mxCell id="8rR2oTFeSmsldMVFy4yS-53" style="edgeStyle=orthogonalEdgeStyle;rounded=0;orthogonalLoop=1;jettySize=auto;html=1;" parent="1" source="8rR2oTFeSmsldMVFy4yS-43" target="8rR2oTFeSmsldMVFy4yS-39" edge="1">
          <mxGeometry relative="1" as="geometry">
            <Array as="points">
              <mxPoint x="-683" y="487.34000000000003" />
              <mxPoint x="-683" y="430.34000000000003" />
            </Array>
          </mxGeometry>
        </mxCell>
        <mxCell id="8rR2oTFeSmsldMVFy4yS-43" value="&lt;div&gt;Population &lt;br&gt;&lt;/div&gt;&lt;div&gt;data&lt;/div&gt;" style="shape=parallelogram;html=1;strokeWidth=2;perimeter=parallelogramPerimeter;whiteSpace=wrap;rounded=1;arcSize=12;size=0.23;" parent="1" vertex="1">
          <mxGeometry x="-923" y="457.34000000000003" width="100" height="60" as="geometry" />
        </mxCell>
        <mxCell id="8rR2oTFeSmsldMVFy4yS-45" value="" style="strokeWidth=2;html=1;shape=mxgraph.flowchart.annotation_2;align=left;labelPosition=right;pointerEvents=1;rotation=90;" parent="1" vertex="1">
          <mxGeometry x="-324.59000000000003" y="102.81" width="43.75" height="215.32" as="geometry" />
        </mxCell>
        <mxCell id="8rR2oTFeSmsldMVFy4yS-46" value="Attractor layer" style="text;html=1;strokeColor=none;fillColor=none;align=center;verticalAlign=middle;whiteSpace=wrap;rounded=0;" parent="1" vertex="1">
          <mxGeometry x="-325.69" y="157.34000000000003" width="95" height="30" as="geometry" />
        </mxCell>
        <mxCell id="8rR2oTFeSmsldMVFy4yS-67" style="edgeStyle=orthogonalEdgeStyle;rounded=0;orthogonalLoop=1;jettySize=auto;html=1;" parent="1" source="8rR2oTFeSmsldMVFy4yS-48" target="8rR2oTFeSmsldMVFy4yS-66" edge="1">
          <mxGeometry relative="1" as="geometry" />
        </mxCell>
        <mxCell id="8rR2oTFeSmsldMVFy4yS-48" value="UDM Downscaling" style="rounded=1;whiteSpace=wrap;html=1;absoluteArcSize=1;arcSize=14;strokeWidth=2;" parent="1" vertex="1">
          <mxGeometry x="-613" y="537.34" width="100" height="100" as="geometry" />
        </mxCell>
        <mxCell id="8rR2oTFeSmsldMVFy4yS-63" style="edgeStyle=orthogonalEdgeStyle;rounded=0;orthogonalLoop=1;jettySize=auto;html=1;" parent="1" source="8rR2oTFeSmsldMVFy4yS-62" target="8rR2oTFeSmsldMVFy4yS-48" edge="1">
          <mxGeometry relative="1" as="geometry" />
        </mxCell>
        <mxCell id="8rR2oTFeSmsldMVFy4yS-62" value="Building tiles" style="shape=parallelogram;html=1;strokeWidth=2;perimeter=parallelogramPerimeter;whiteSpace=wrap;rounded=1;arcSize=12;size=0.23;" parent="1" vertex="1">
          <mxGeometry x="-923" y="557.34" width="100" height="60" as="geometry" />
        </mxCell>
        <mxCell id="8rR2oTFeSmsldMVFy4yS-64" value="Development suitability" style="shape=parallelogram;html=1;strokeWidth=2;perimeter=parallelogramPerimeter;whiteSpace=wrap;rounded=1;arcSize=12;size=0.23;" parent="1" vertex="1">
          <mxGeometry x="-393" y="477.34000000000003" width="100" height="60" as="geometry" />
        </mxCell>
        <mxCell id="8rR2oTFeSmsldMVFy4yS-66" value="&lt;div&gt;New &lt;br&gt;&lt;/div&gt;&lt;div&gt;buildings&lt;/div&gt;" style="shape=parallelogram;html=1;strokeWidth=2;perimeter=parallelogramPerimeter;whiteSpace=wrap;rounded=1;arcSize=12;size=0.23;" parent="1" vertex="1">
          <mxGeometry x="-403" y="557.34" width="100" height="60" as="geometry" />
        </mxCell>
        <mxCell id="LKl9TrdxV6kUyvsDTqqw-4" style="edgeStyle=orthogonalEdgeStyle;rounded=0;orthogonalLoop=1;jettySize=auto;html=1;" parent="1" source="LKl9TrdxV6kUyvsDTqqw-1" target="8rR2oTFeSmsldMVFy4yS-39" edge="1">
          <mxGeometry relative="1" as="geometry">
            <Array as="points">
              <mxPoint x="-906" y="320" />
              <mxPoint x="-563" y="320" />
            </Array>
          </mxGeometry>
        </mxCell>
        <mxCell id="LKl9TrdxV6kUyvsDTqqw-1" value="Flood areas" style="shape=parallelogram;html=1;strokeWidth=2;perimeter=parallelogramPerimeter;whiteSpace=wrap;rounded=1;arcSize=12;size=0.23;" parent="1" vertex="1">
          <mxGeometry x="-956" y="227.34" width="100" height="60" as="geometry" />
        </mxCell>
      </root>
    </mxGraphModel>
  </diagram>
  <diagram id="Yevh-g8nTKUBOGGr0oUq" name="Page-2">
    <mxGraphModel dx="2234" dy="1154" grid="1" gridSize="10" guides="1" tooltips="1" connect="1" arrows="1" fold="1" page="1" pageScale="1" pageWidth="827" pageHeight="1169" math="0" shadow="0">
      <root>
        <mxCell id="gkHT4bu3b0f0jtjOqA4o-0" />
        <mxCell id="gkHT4bu3b0f0jtjOqA4o-1" parent="gkHT4bu3b0f0jtjOqA4o-0" />
        <mxCell id="12xH_gXyC0JP7orOwCKg-12" value="" style="edgeStyle=orthogonalEdgeStyle;rounded=0;orthogonalLoop=1;jettySize=auto;html=1;" parent="gkHT4bu3b0f0jtjOqA4o-1" source="12xH_gXyC0JP7orOwCKg-14" target="12xH_gXyC0JP7orOwCKg-26" edge="1">
          <mxGeometry relative="1" as="geometry" />
        </mxCell>
        <mxCell id="12xH_gXyC0JP7orOwCKg-13" style="edgeStyle=orthogonalEdgeStyle;rounded=0;orthogonalLoop=1;jettySize=auto;html=1;" parent="gkHT4bu3b0f0jtjOqA4o-1" source="12xH_gXyC0JP7orOwCKg-14" target="12xH_gXyC0JP7orOwCKg-29" edge="1">
          <mxGeometry relative="1" as="geometry">
            <Array as="points">
              <mxPoint x="571" y="560" />
              <mxPoint x="765" y="560" />
            </Array>
          </mxGeometry>
        </mxCell>
        <mxCell id="8inwFE-MQz8HEBYmpQ9X-59" style="edgeStyle=orthogonalEdgeStyle;rounded=0;orthogonalLoop=1;jettySize=auto;html=1;" edge="1" parent="gkHT4bu3b0f0jtjOqA4o-1" source="12xH_gXyC0JP7orOwCKg-14" target="8inwFE-MQz8HEBYmpQ9X-58">
          <mxGeometry relative="1" as="geometry">
            <Array as="points">
              <mxPoint x="571" y="560" />
              <mxPoint x="901" y="560" />
            </Array>
          </mxGeometry>
        </mxCell>
        <mxCell id="12xH_gXyC0JP7orOwCKg-14" value="Urban Development Model (UDM)" style="rounded=1;whiteSpace=wrap;html=1;absoluteArcSize=1;arcSize=14;strokeWidth=2;" parent="gkHT4bu3b0f0jtjOqA4o-1" vertex="1">
          <mxGeometry x="520.93" y="442.5" width="100" height="100" as="geometry" />
        </mxCell>
        <mxCell id="12xH_gXyC0JP7orOwCKg-19" style="edgeStyle=orthogonalEdgeStyle;rounded=0;orthogonalLoop=1;jettySize=auto;html=1;" parent="gkHT4bu3b0f0jtjOqA4o-1" source="12xH_gXyC0JP7orOwCKg-20" target="12xH_gXyC0JP7orOwCKg-14" edge="1">
          <mxGeometry relative="1" as="geometry">
            <Array as="points">
              <mxPoint x="450.92999999999995" y="480" />
              <mxPoint x="450.92999999999995" y="493" />
            </Array>
          </mxGeometry>
        </mxCell>
        <mxCell id="12xH_gXyC0JP7orOwCKg-20" value="Population boundaries" style="shape=parallelogram;html=1;strokeWidth=2;perimeter=parallelogramPerimeter;whiteSpace=wrap;rounded=1;arcSize=12;size=0.23;" parent="gkHT4bu3b0f0jtjOqA4o-1" vertex="1">
          <mxGeometry x="220.92999999999995" y="450" width="100" height="60" as="geometry" />
        </mxCell>
        <mxCell id="12xH_gXyC0JP7orOwCKg-21" style="edgeStyle=orthogonalEdgeStyle;rounded=0;orthogonalLoop=1;jettySize=auto;html=1;" parent="gkHT4bu3b0f0jtjOqA4o-1" source="12xH_gXyC0JP7orOwCKg-22" target="12xH_gXyC0JP7orOwCKg-14" edge="1">
          <mxGeometry relative="1" as="geometry">
            <Array as="points">
              <mxPoint x="450.92999999999995" y="550" />
              <mxPoint x="450.92999999999995" y="493" />
            </Array>
          </mxGeometry>
        </mxCell>
        <mxCell id="12xH_gXyC0JP7orOwCKg-22" value="&lt;div&gt;Population &lt;br&gt;&lt;/div&gt;&lt;div&gt;data&lt;/div&gt;" style="shape=parallelogram;html=1;strokeWidth=2;perimeter=parallelogramPerimeter;whiteSpace=wrap;rounded=1;arcSize=12;size=0.23;" parent="gkHT4bu3b0f0jtjOqA4o-1" vertex="1">
          <mxGeometry x="220.92999999999995" y="520" width="100" height="60" as="geometry" />
        </mxCell>
        <mxCell id="12xH_gXyC0JP7orOwCKg-25" style="edgeStyle=orthogonalEdgeStyle;rounded=0;orthogonalLoop=1;jettySize=auto;html=1;" parent="gkHT4bu3b0f0jtjOqA4o-1" source="12xH_gXyC0JP7orOwCKg-26" target="12xH_gXyC0JP7orOwCKg-30" edge="1">
          <mxGeometry relative="1" as="geometry" />
        </mxCell>
        <mxCell id="12xH_gXyC0JP7orOwCKg-26" value="UDM Downscaling" style="rounded=1;whiteSpace=wrap;html=1;absoluteArcSize=1;arcSize=14;strokeWidth=2;" parent="gkHT4bu3b0f0jtjOqA4o-1" vertex="1">
          <mxGeometry x="520.93" y="660" width="100" height="100" as="geometry" />
        </mxCell>
        <mxCell id="12xH_gXyC0JP7orOwCKg-27" style="edgeStyle=orthogonalEdgeStyle;rounded=0;orthogonalLoop=1;jettySize=auto;html=1;" parent="gkHT4bu3b0f0jtjOqA4o-1" source="12xH_gXyC0JP7orOwCKg-28" target="12xH_gXyC0JP7orOwCKg-26" edge="1">
          <mxGeometry relative="1" as="geometry" />
        </mxCell>
        <mxCell id="12xH_gXyC0JP7orOwCKg-28" value="Building tiles" style="shape=parallelogram;html=1;strokeWidth=2;perimeter=parallelogramPerimeter;whiteSpace=wrap;rounded=1;arcSize=12;size=0.23;" parent="gkHT4bu3b0f0jtjOqA4o-1" vertex="1">
          <mxGeometry x="220.92999999999995" y="620" width="100" height="60" as="geometry" />
        </mxCell>
        <mxCell id="12xH_gXyC0JP7orOwCKg-29" value="Development suitability" style="shape=parallelogram;html=1;strokeWidth=2;perimeter=parallelogramPerimeter;whiteSpace=wrap;rounded=1;arcSize=12;size=0.23;" parent="gkHT4bu3b0f0jtjOqA4o-1" vertex="1">
          <mxGeometry x="710" y="580" width="109.07" height="60" as="geometry" />
        </mxCell>
        <mxCell id="12xH_gXyC0JP7orOwCKg-30" value="&lt;div&gt;New &lt;br&gt;&lt;/div&gt;&lt;div&gt;buildings&lt;/div&gt;" style="shape=parallelogram;html=1;strokeWidth=2;perimeter=parallelogramPerimeter;whiteSpace=wrap;rounded=1;arcSize=12;size=0.23;" parent="gkHT4bu3b0f0jtjOqA4o-1" vertex="1">
          <mxGeometry x="718" y="680" width="109.07" height="60" as="geometry" />
        </mxCell>
        <mxCell id="12xH_gXyC0JP7orOwCKg-34" style="edgeStyle=orthogonalEdgeStyle;rounded=0;orthogonalLoop=1;jettySize=auto;html=1;" parent="gkHT4bu3b0f0jtjOqA4o-1" source="12xH_gXyC0JP7orOwCKg-31" target="12xH_gXyC0JP7orOwCKg-33" edge="1">
          <mxGeometry relative="1" as="geometry" />
        </mxCell>
        <mxCell id="12xH_gXyC0JP7orOwCKg-31" value="Road data" style="shape=parallelogram;html=1;strokeWidth=2;perimeter=parallelogramPerimeter;whiteSpace=wrap;rounded=1;arcSize=12;size=0.23;" parent="gkHT4bu3b0f0jtjOqA4o-1" vertex="1">
          <mxGeometry x="686.2600000000001" y="30" width="100" height="60" as="geometry" />
        </mxCell>
        <mxCell id="12xH_gXyC0JP7orOwCKg-35" style="edgeStyle=orthogonalEdgeStyle;rounded=0;orthogonalLoop=1;jettySize=auto;html=1;" parent="gkHT4bu3b0f0jtjOqA4o-1" source="12xH_gXyC0JP7orOwCKg-32" target="12xH_gXyC0JP7orOwCKg-33" edge="1">
          <mxGeometry relative="1" as="geometry" />
        </mxCell>
        <mxCell id="12xH_gXyC0JP7orOwCKg-32" value="&lt;div&gt;Railway &lt;br&gt;&lt;/div&gt;&lt;div&gt;stations&lt;/div&gt;" style="shape=parallelogram;html=1;strokeWidth=2;perimeter=parallelogramPerimeter;whiteSpace=wrap;rounded=1;arcSize=12;size=0.23;" parent="gkHT4bu3b0f0jtjOqA4o-1" vertex="1">
          <mxGeometry x="795.6" y="30" width="100" height="60" as="geometry" />
        </mxCell>
        <mxCell id="crPVwcIPL3rN5ODeDzdk-18" style="edgeStyle=orthogonalEdgeStyle;rounded=0;orthogonalLoop=1;jettySize=auto;html=1;" parent="gkHT4bu3b0f0jtjOqA4o-1" source="12xH_gXyC0JP7orOwCKg-33" target="crPVwcIPL3rN5ODeDzdk-15" edge="1">
          <mxGeometry relative="1" as="geometry" />
        </mxCell>
        <mxCell id="12xH_gXyC0JP7orOwCKg-33" value="Proximity mapper" style="rounded=1;whiteSpace=wrap;html=1;absoluteArcSize=1;arcSize=14;strokeWidth=2;" parent="gkHT4bu3b0f0jtjOqA4o-1" vertex="1">
          <mxGeometry x="746.2600000000001" y="130" width="100" height="60" as="geometry" />
        </mxCell>
        <mxCell id="12xH_gXyC0JP7orOwCKg-60" style="edgeStyle=orthogonalEdgeStyle;rounded=0;orthogonalLoop=1;jettySize=auto;html=1;" parent="gkHT4bu3b0f0jtjOqA4o-1" source="12xH_gXyC0JP7orOwCKg-57" target="12xH_gXyC0JP7orOwCKg-14" edge="1">
          <mxGeometry relative="1" as="geometry">
            <Array as="points">
              <mxPoint x="1030" y="510" />
            </Array>
          </mxGeometry>
        </mxCell>
        <mxCell id="12xH_gXyC0JP7orOwCKg-57" value="Parameters" style="shape=parallelogram;html=1;strokeWidth=2;perimeter=parallelogramPerimeter;whiteSpace=wrap;rounded=1;arcSize=12;size=0.23;" parent="gkHT4bu3b0f0jtjOqA4o-1" vertex="1">
          <mxGeometry x="980" y="290" width="100" height="60" as="geometry" />
        </mxCell>
        <mxCell id="12xH_gXyC0JP7orOwCKg-61" style="edgeStyle=orthogonalEdgeStyle;rounded=0;orthogonalLoop=1;jettySize=auto;html=1;" parent="gkHT4bu3b0f0jtjOqA4o-1" source="12xH_gXyC0JP7orOwCKg-43" target="12xH_gXyC0JP7orOwCKg-57" edge="1">
          <mxGeometry relative="1" as="geometry" />
        </mxCell>
        <mxCell id="12xH_gXyC0JP7orOwCKg-43" value="" style="shape=table;html=1;whiteSpace=wrap;startSize=0;container=1;collapsible=0;childLayout=tableLayout;" parent="gkHT4bu3b0f0jtjOqA4o-1" vertex="1">
          <mxGeometry x="930" y="40" width="390" height="140" as="geometry" />
        </mxCell>
        <mxCell id="12xH_gXyC0JP7orOwCKg-44" value="" style="shape=partialRectangle;html=1;whiteSpace=wrap;collapsible=0;dropTarget=0;pointerEvents=0;fillColor=none;top=0;left=0;bottom=0;right=0;points=[[0,0.5],[1,0.5]];portConstraint=eastwest;" parent="12xH_gXyC0JP7orOwCKg-43" vertex="1">
          <mxGeometry width="390" height="35" as="geometry" />
        </mxCell>
        <mxCell id="12xH_gXyC0JP7orOwCKg-45" value="Parameter" style="shape=partialRectangle;html=1;whiteSpace=wrap;connectable=0;overflow=hidden;fillColor=none;top=0;left=0;bottom=0;right=0;" parent="12xH_gXyC0JP7orOwCKg-44" vertex="1">
          <mxGeometry width="140" height="35" as="geometry" />
        </mxCell>
        <mxCell id="12xH_gXyC0JP7orOwCKg-46" value="Description" style="shape=partialRectangle;html=1;whiteSpace=wrap;connectable=0;overflow=hidden;fillColor=none;top=0;left=0;bottom=0;right=0;" parent="12xH_gXyC0JP7orOwCKg-44" vertex="1">
          <mxGeometry x="140" width="250" height="35" as="geometry" />
        </mxCell>
        <mxCell id="12xH_gXyC0JP7orOwCKg-47" value="" style="shape=partialRectangle;html=1;whiteSpace=wrap;collapsible=0;dropTarget=0;pointerEvents=0;fillColor=none;top=0;left=0;bottom=0;right=0;points=[[0,0.5],[1,0.5]];portConstraint=eastwest;" parent="12xH_gXyC0JP7orOwCKg-43" vertex="1">
          <mxGeometry y="35" width="390" height="35" as="geometry" />
        </mxCell>
        <mxCell id="12xH_gXyC0JP7orOwCKg-48" value="Minimum development area (hectares)" style="shape=partialRectangle;html=1;whiteSpace=wrap;connectable=0;overflow=hidden;fillColor=none;top=0;left=0;bottom=0;right=0;" parent="12xH_gXyC0JP7orOwCKg-47" vertex="1">
          <mxGeometry width="140" height="35" as="geometry" />
        </mxCell>
        <mxCell id="12xH_gXyC0JP7orOwCKg-49" value="The minimum size of any areas for new developments" style="shape=partialRectangle;html=1;whiteSpace=wrap;connectable=0;overflow=hidden;fillColor=none;top=0;left=0;bottom=0;right=0;" parent="12xH_gXyC0JP7orOwCKg-47" vertex="1">
          <mxGeometry x="140" width="250" height="35" as="geometry" />
        </mxCell>
        <mxCell id="12xH_gXyC0JP7orOwCKg-50" value="" style="shape=partialRectangle;html=1;whiteSpace=wrap;collapsible=0;dropTarget=0;pointerEvents=0;fillColor=none;top=0;left=0;bottom=0;right=0;points=[[0,0.5],[1,0.5]];portConstraint=eastwest;" parent="12xH_gXyC0JP7orOwCKg-43" vertex="1">
          <mxGeometry y="70" width="390" height="35" as="geometry" />
        </mxCell>
        <mxCell id="12xH_gXyC0JP7orOwCKg-51" value="" style="shape=partialRectangle;html=1;whiteSpace=wrap;connectable=0;overflow=hidden;fillColor=none;top=0;left=0;bottom=0;right=0;" parent="12xH_gXyC0JP7orOwCKg-50" vertex="1">
          <mxGeometry width="140" height="35" as="geometry" />
        </mxCell>
        <mxCell id="12xH_gXyC0JP7orOwCKg-52" value="" style="shape=partialRectangle;html=1;whiteSpace=wrap;connectable=0;overflow=hidden;fillColor=none;top=0;left=0;bottom=0;right=0;" parent="12xH_gXyC0JP7orOwCKg-50" vertex="1">
          <mxGeometry x="140" width="250" height="35" as="geometry" />
        </mxCell>
        <mxCell id="12xH_gXyC0JP7orOwCKg-53" value="" style="shape=partialRectangle;html=1;whiteSpace=wrap;collapsible=0;dropTarget=0;pointerEvents=0;fillColor=none;top=0;left=0;bottom=0;right=0;points=[[0,0.5],[1,0.5]];portConstraint=eastwest;" parent="12xH_gXyC0JP7orOwCKg-43" vertex="1">
          <mxGeometry y="105" width="390" height="35" as="geometry" />
        </mxCell>
        <mxCell id="12xH_gXyC0JP7orOwCKg-54" value="" style="shape=partialRectangle;html=1;whiteSpace=wrap;connectable=0;overflow=hidden;fillColor=none;top=0;left=0;bottom=0;right=0;" parent="12xH_gXyC0JP7orOwCKg-53" vertex="1">
          <mxGeometry width="140" height="35" as="geometry" />
        </mxCell>
        <mxCell id="12xH_gXyC0JP7orOwCKg-55" value="" style="shape=partialRectangle;html=1;whiteSpace=wrap;connectable=0;overflow=hidden;fillColor=none;top=0;left=0;bottom=0;right=0;" parent="12xH_gXyC0JP7orOwCKg-53" vertex="1">
          <mxGeometry x="140" width="250" height="35" as="geometry" />
        </mxCell>
        <mxCell id="12xH_gXyC0JP7orOwCKg-56" style="edgeStyle=orthogonalEdgeStyle;rounded=0;orthogonalLoop=1;jettySize=auto;html=1;exitX=1;exitY=0.5;exitDx=0;exitDy=0;" parent="12xH_gXyC0JP7orOwCKg-43" source="12xH_gXyC0JP7orOwCKg-47" target="12xH_gXyC0JP7orOwCKg-47" edge="1">
          <mxGeometry relative="1" as="geometry" />
        </mxCell>
        <mxCell id="12xH_gXyC0JP7orOwCKg-71" style="edgeStyle=orthogonalEdgeStyle;rounded=0;orthogonalLoop=1;jettySize=auto;html=1;" parent="gkHT4bu3b0f0jtjOqA4o-1" source="12xH_gXyC0JP7orOwCKg-63" target="12xH_gXyC0JP7orOwCKg-14" edge="1">
          <mxGeometry relative="1" as="geometry">
            <Array as="points">
              <mxPoint x="441" y="400" />
              <mxPoint x="571" y="400" />
            </Array>
          </mxGeometry>
        </mxCell>
        <mxCell id="12xH_gXyC0JP7orOwCKg-63" value="Format convertor&amp;nbsp; (vector to raster)" style="rounded=1;whiteSpace=wrap;html=1;absoluteArcSize=1;arcSize=14;strokeWidth=2;" parent="gkHT4bu3b0f0jtjOqA4o-1" vertex="1">
          <mxGeometry x="390.6600000000001" y="310" width="100" height="60" as="geometry" />
        </mxCell>
        <mxCell id="crPVwcIPL3rN5ODeDzdk-2" style="edgeStyle=orthogonalEdgeStyle;rounded=0;orthogonalLoop=1;jettySize=auto;html=1;" parent="gkHT4bu3b0f0jtjOqA4o-1" source="12xH_gXyC0JP7orOwCKg-72" target="12xH_gXyC0JP7orOwCKg-63" edge="1">
          <mxGeometry relative="1" as="geometry" />
        </mxCell>
        <mxCell id="12xH_gXyC0JP7orOwCKg-72" value="Constraint layer data" style="swimlane;" parent="gkHT4bu3b0f0jtjOqA4o-1" vertex="1">
          <mxGeometry x="90" y="100" width="580" height="120" as="geometry">
            <mxRectangle x="90" y="100" width="150" height="23" as="alternateBounds" />
          </mxGeometry>
        </mxCell>
        <mxCell id="12xH_gXyC0JP7orOwCKg-11" value="Historic conservation areas" style="shape=parallelogram;html=1;strokeWidth=2;perimeter=parallelogramPerimeter;whiteSpace=wrap;rounded=1;arcSize=12;size=0.23;" parent="12xH_gXyC0JP7orOwCKg-72" vertex="1">
          <mxGeometry x="463.46999999999997" y="30" width="100" height="60" as="geometry" />
        </mxCell>
        <mxCell id="crPVwcIPL3rN5ODeDzdk-5" style="edgeStyle=orthogonalEdgeStyle;rounded=0;orthogonalLoop=1;jettySize=auto;html=1;entryX=0.5;entryY=1;entryDx=0;entryDy=0;" parent="12xH_gXyC0JP7orOwCKg-72" source="12xH_gXyC0JP7orOwCKg-11" target="12xH_gXyC0JP7orOwCKg-72" edge="1">
          <mxGeometry relative="1" as="geometry">
            <mxPoint x="260" y="109.99999999999994" as="targetPoint" />
            <Array as="points">
              <mxPoint x="461" y="100" />
              <mxPoint x="260" y="100" />
            </Array>
          </mxGeometry>
        </mxCell>
        <mxCell id="crPVwcIPL3rN5ODeDzdk-6" style="edgeStyle=orthogonalEdgeStyle;rounded=0;orthogonalLoop=1;jettySize=auto;html=1;entryX=0.5;entryY=1;entryDx=0;entryDy=0;" parent="12xH_gXyC0JP7orOwCKg-72" source="12xH_gXyC0JP7orOwCKg-9" target="12xH_gXyC0JP7orOwCKg-72" edge="1">
          <mxGeometry relative="1" as="geometry">
            <Array as="points">
              <mxPoint x="370" y="100" />
              <mxPoint x="260" y="100" />
            </Array>
          </mxGeometry>
        </mxCell>
        <mxCell id="12xH_gXyC0JP7orOwCKg-9" value="Nature conservation areas" style="shape=parallelogram;html=1;strokeWidth=2;perimeter=parallelogramPerimeter;whiteSpace=wrap;rounded=1;arcSize=12;size=0.23;" parent="12xH_gXyC0JP7orOwCKg-72" vertex="1">
          <mxGeometry x="372.53999999999996" y="30" width="100" height="60" as="geometry" />
        </mxCell>
        <mxCell id="crPVwcIPL3rN5ODeDzdk-7" style="edgeStyle=orthogonalEdgeStyle;rounded=0;orthogonalLoop=1;jettySize=auto;html=1;entryX=0.5;entryY=1;entryDx=0;entryDy=0;" parent="12xH_gXyC0JP7orOwCKg-72" source="12xH_gXyC0JP7orOwCKg-7" target="12xH_gXyC0JP7orOwCKg-72" edge="1">
          <mxGeometry relative="1" as="geometry">
            <Array as="points">
              <mxPoint x="333" y="100" />
              <mxPoint x="290" y="100" />
            </Array>
          </mxGeometry>
        </mxCell>
        <mxCell id="12xH_gXyC0JP7orOwCKg-7" value="Water bodies" style="shape=parallelogram;html=1;strokeWidth=2;perimeter=parallelogramPerimeter;whiteSpace=wrap;rounded=1;arcSize=12;size=0.23;" parent="12xH_gXyC0JP7orOwCKg-72" vertex="1">
          <mxGeometry x="282.53999999999996" y="30" width="100" height="60" as="geometry" />
        </mxCell>
        <mxCell id="crPVwcIPL3rN5ODeDzdk-11" style="edgeStyle=orthogonalEdgeStyle;rounded=0;orthogonalLoop=1;jettySize=auto;html=1;entryX=0.5;entryY=1;entryDx=0;entryDy=0;" parent="12xH_gXyC0JP7orOwCKg-72" source="12xH_gXyC0JP7orOwCKg-5" target="12xH_gXyC0JP7orOwCKg-72" edge="1">
          <mxGeometry relative="1" as="geometry">
            <Array as="points">
              <mxPoint x="243" y="100" />
              <mxPoint x="290" y="100" />
            </Array>
          </mxGeometry>
        </mxCell>
        <mxCell id="12xH_gXyC0JP7orOwCKg-5" value="Green belt" style="shape=parallelogram;html=1;strokeWidth=2;perimeter=parallelogramPerimeter;whiteSpace=wrap;rounded=1;arcSize=12;size=0.23;" parent="12xH_gXyC0JP7orOwCKg-72" vertex="1">
          <mxGeometry x="192.53999999999994" y="30" width="100" height="60" as="geometry" />
        </mxCell>
        <mxCell id="crPVwcIPL3rN5ODeDzdk-14" style="edgeStyle=orthogonalEdgeStyle;rounded=0;orthogonalLoop=1;jettySize=auto;html=1;entryX=0.5;entryY=1;entryDx=0;entryDy=0;" parent="12xH_gXyC0JP7orOwCKg-72" source="crPVwcIPL3rN5ODeDzdk-0" target="12xH_gXyC0JP7orOwCKg-72" edge="1">
          <mxGeometry relative="1" as="geometry">
            <Array as="points">
              <mxPoint x="157" y="100" />
              <mxPoint x="290" y="100" />
            </Array>
          </mxGeometry>
        </mxCell>
        <mxCell id="crPVwcIPL3rN5ODeDzdk-0" value="Flood areas" style="shape=parallelogram;html=1;strokeWidth=2;perimeter=parallelogramPerimeter;whiteSpace=wrap;rounded=1;arcSize=12;size=0.23;" parent="12xH_gXyC0JP7orOwCKg-72" vertex="1">
          <mxGeometry x="106.53999999999999" y="30" width="100" height="60" as="geometry" />
        </mxCell>
        <mxCell id="crPVwcIPL3rN5ODeDzdk-13" style="edgeStyle=orthogonalEdgeStyle;rounded=0;orthogonalLoop=1;jettySize=auto;html=1;entryX=0.5;entryY=1;entryDx=0;entryDy=0;" parent="12xH_gXyC0JP7orOwCKg-72" source="12xH_gXyC0JP7orOwCKg-2" target="12xH_gXyC0JP7orOwCKg-72" edge="1">
          <mxGeometry relative="1" as="geometry">
            <Array as="points">
              <mxPoint x="67" y="100" />
              <mxPoint x="290" y="100" />
            </Array>
          </mxGeometry>
        </mxCell>
        <mxCell id="12xH_gXyC0JP7orOwCKg-2" value="Buildings" style="shape=parallelogram;html=1;strokeWidth=2;perimeter=parallelogramPerimeter;whiteSpace=wrap;rounded=1;arcSize=12;size=0.23;" parent="12xH_gXyC0JP7orOwCKg-72" vertex="1">
          <mxGeometry x="16.539999999999942" y="30" width="100" height="60" as="geometry" />
        </mxCell>
        <mxCell id="crPVwcIPL3rN5ODeDzdk-20" style="edgeStyle=orthogonalEdgeStyle;rounded=0;orthogonalLoop=1;jettySize=auto;html=1;entryX=0.998;entryY=0.675;entryDx=0;entryDy=0;entryPerimeter=0;" parent="gkHT4bu3b0f0jtjOqA4o-1" source="crPVwcIPL3rN5ODeDzdk-15" target="12xH_gXyC0JP7orOwCKg-14" edge="1">
          <mxGeometry relative="1" as="geometry">
            <Array as="points">
              <mxPoint x="796" y="510" />
            </Array>
          </mxGeometry>
        </mxCell>
        <mxCell id="crPVwcIPL3rN5ODeDzdk-15" value="Attractor layer" style="swimlane;" parent="gkHT4bu3b0f0jtjOqA4o-1" vertex="1">
          <mxGeometry x="686.26" y="250" width="220" height="140" as="geometry" />
        </mxCell>
        <mxCell id="crPVwcIPL3rN5ODeDzdk-16" value="&lt;div&gt;Proximity to&lt;/div&gt;&lt;div&gt;rail stations&lt;br&gt;&lt;/div&gt;" style="shape=parallelogram;html=1;strokeWidth=2;perimeter=parallelogramPerimeter;whiteSpace=wrap;rounded=1;arcSize=12;size=0.23;" parent="crPVwcIPL3rN5ODeDzdk-15" vertex="1">
          <mxGeometry x="110" y="49.21000000000001" width="100" height="60" as="geometry" />
        </mxCell>
        <mxCell id="crPVwcIPL3rN5ODeDzdk-17" value="&lt;div&gt;Proximity to&lt;/div&gt;&lt;div&gt; roads&lt;/div&gt;" style="shape=parallelogram;html=1;strokeWidth=2;perimeter=parallelogramPerimeter;whiteSpace=wrap;rounded=1;arcSize=12;size=0.23;" parent="crPVwcIPL3rN5ODeDzdk-15" vertex="1">
          <mxGeometry x="10" y="49.21000000000001" width="100" height="60" as="geometry" />
        </mxCell>
        <mxCell id="8inwFE-MQz8HEBYmpQ9X-0" value="" style="shape=table;html=1;whiteSpace=wrap;startSize=0;container=1;collapsible=0;childLayout=tableLayout;spacingTop=0;rowLines=0;" vertex="1" parent="gkHT4bu3b0f0jtjOqA4o-1">
          <mxGeometry x="1110" y="270" width="513" height="350" as="geometry" />
        </mxCell>
        <mxCell id="8inwFE-MQz8HEBYmpQ9X-1" value="" style="shape=partialRectangle;html=1;whiteSpace=wrap;collapsible=0;dropTarget=0;pointerEvents=0;fillColor=none;top=0;left=0;bottom=0;right=0;points=[[0,0.5],[1,0.5]];portConstraint=eastwest;perimeterSpacing=2;strokeWidth=5;" vertex="1" parent="8inwFE-MQz8HEBYmpQ9X-0">
          <mxGeometry width="513" height="30" as="geometry" />
        </mxCell>
        <mxCell id="8inwFE-MQz8HEBYmpQ9X-2" value="&lt;b&gt;Dataset&lt;/b&gt;" style="shape=partialRectangle;html=1;whiteSpace=wrap;connectable=0;fillColor=none;top=0;left=0;bottom=1;right=0;overflow=hidden;" vertex="1" parent="8inwFE-MQz8HEBYmpQ9X-1">
          <mxGeometry width="257" height="30" as="geometry" />
        </mxCell>
        <mxCell id="8inwFE-MQz8HEBYmpQ9X-3" value="&lt;b&gt;Format&lt;/b&gt;" style="shape=partialRectangle;html=1;whiteSpace=wrap;connectable=0;fillColor=none;top=0;left=0;bottom=1;right=0;overflow=hidden;sketch=0;" vertex="1" parent="8inwFE-MQz8HEBYmpQ9X-1">
          <mxGeometry x="257" width="256" height="30" as="geometry" />
        </mxCell>
        <mxCell id="8inwFE-MQz8HEBYmpQ9X-4" style="shape=partialRectangle;html=1;whiteSpace=wrap;collapsible=0;dropTarget=0;pointerEvents=0;fillColor=none;top=0;left=0;bottom=0;right=0;points=[[0,0.5],[1,0.5]];portConstraint=eastwest;strokeColor=none;" vertex="1" parent="8inwFE-MQz8HEBYmpQ9X-0">
          <mxGeometry y="30" width="513" height="20" as="geometry" />
        </mxCell>
        <mxCell id="8inwFE-MQz8HEBYmpQ9X-5" value="Configuration" style="shape=partialRectangle;html=1;whiteSpace=wrap;connectable=0;fillColor=none;top=0;left=0;bottom=0;right=0;overflow=hidden;strokeColor=none;" vertex="1" parent="8inwFE-MQz8HEBYmpQ9X-4">
          <mxGeometry width="257" height="20" as="geometry" />
        </mxCell>
        <mxCell id="8inwFE-MQz8HEBYmpQ9X-6" value=".csv" style="shape=partialRectangle;html=1;whiteSpace=wrap;connectable=0;fillColor=none;top=0;left=0;bottom=0;right=0;overflow=hidden;strokeColor=none;" vertex="1" parent="8inwFE-MQz8HEBYmpQ9X-4">
          <mxGeometry x="257" width="256" height="20" as="geometry" />
        </mxCell>
        <mxCell id="8inwFE-MQz8HEBYmpQ9X-7" value="" style="shape=partialRectangle;html=1;whiteSpace=wrap;collapsible=0;dropTarget=0;pointerEvents=0;fillColor=none;top=0;left=0;bottom=0;right=0;points=[[0,0.5],[1,0.5]];portConstraint=eastwest;strokeColor=none;" vertex="1" parent="8inwFE-MQz8HEBYmpQ9X-0">
          <mxGeometry y="50" width="513" height="20" as="geometry" />
        </mxCell>
        <mxCell id="8inwFE-MQz8HEBYmpQ9X-8" value="Road data" style="shape=partialRectangle;html=1;whiteSpace=wrap;connectable=0;fillColor=none;top=0;left=0;bottom=0;right=0;overflow=hidden;strokeColor=none;" vertex="1" parent="8inwFE-MQz8HEBYmpQ9X-7">
          <mxGeometry width="257" height="20" as="geometry" />
        </mxCell>
        <mxCell id="8inwFE-MQz8HEBYmpQ9X-9" value=".shp (Shapefile)" style="shape=partialRectangle;html=1;whiteSpace=wrap;connectable=0;fillColor=none;top=0;left=0;bottom=0;right=0;overflow=hidden;strokeColor=none;" vertex="1" parent="8inwFE-MQz8HEBYmpQ9X-7">
          <mxGeometry x="257" width="256" height="20" as="geometry" />
        </mxCell>
        <mxCell id="8inwFE-MQz8HEBYmpQ9X-10" value="" style="shape=partialRectangle;html=1;whiteSpace=wrap;collapsible=0;dropTarget=0;pointerEvents=0;fillColor=none;top=0;left=0;bottom=0;right=0;points=[[0,0.5],[1,0.5]];portConstraint=eastwest;strokeColor=none;" vertex="1" parent="8inwFE-MQz8HEBYmpQ9X-0">
          <mxGeometry y="70" width="513" height="20" as="geometry" />
        </mxCell>
        <mxCell id="8inwFE-MQz8HEBYmpQ9X-11" value="Railway stations" style="shape=partialRectangle;html=1;whiteSpace=wrap;connectable=0;fillColor=none;top=0;left=0;bottom=0;right=0;overflow=hidden;strokeColor=none;" vertex="1" parent="8inwFE-MQz8HEBYmpQ9X-10">
          <mxGeometry width="257" height="20" as="geometry" />
        </mxCell>
        <mxCell id="8inwFE-MQz8HEBYmpQ9X-12" value=".shp" style="shape=partialRectangle;html=1;whiteSpace=wrap;connectable=0;fillColor=none;top=0;left=0;bottom=0;right=0;overflow=hidden;strokeColor=none;" vertex="1" parent="8inwFE-MQz8HEBYmpQ9X-10">
          <mxGeometry x="257" width="256" height="20" as="geometry" />
        </mxCell>
        <mxCell id="8inwFE-MQz8HEBYmpQ9X-16" style="shape=partialRectangle;html=1;whiteSpace=wrap;collapsible=0;dropTarget=0;pointerEvents=0;fillColor=none;top=0;left=0;bottom=0;right=0;points=[[0,0.5],[1,0.5]];portConstraint=eastwest;strokeColor=none;" vertex="1" parent="8inwFE-MQz8HEBYmpQ9X-0">
          <mxGeometry y="90" width="513" height="20" as="geometry" />
        </mxCell>
        <mxCell id="8inwFE-MQz8HEBYmpQ9X-17" value="Buildings" style="shape=partialRectangle;html=1;whiteSpace=wrap;connectable=0;fillColor=none;top=0;left=0;bottom=0;right=0;overflow=hidden;strokeColor=none;" vertex="1" parent="8inwFE-MQz8HEBYmpQ9X-16">
          <mxGeometry width="257" height="20" as="geometry" />
        </mxCell>
        <mxCell id="8inwFE-MQz8HEBYmpQ9X-18" value=".shp&lt;sup&gt;+&lt;/sup&gt;" style="shape=partialRectangle;html=1;whiteSpace=wrap;connectable=0;fillColor=none;top=0;left=0;bottom=0;right=0;overflow=hidden;strokeColor=none;" vertex="1" parent="8inwFE-MQz8HEBYmpQ9X-16">
          <mxGeometry x="257" width="256" height="20" as="geometry" />
        </mxCell>
        <mxCell id="8inwFE-MQz8HEBYmpQ9X-19" style="shape=partialRectangle;html=1;whiteSpace=wrap;collapsible=0;dropTarget=0;pointerEvents=0;fillColor=none;top=0;left=0;bottom=0;right=0;points=[[0,0.5],[1,0.5]];portConstraint=eastwest;strokeColor=none;" vertex="1" parent="8inwFE-MQz8HEBYmpQ9X-0">
          <mxGeometry y="110" width="513" height="20" as="geometry" />
        </mxCell>
        <mxCell id="8inwFE-MQz8HEBYmpQ9X-20" value="Water bodies" style="shape=partialRectangle;html=1;whiteSpace=wrap;connectable=0;fillColor=none;top=0;left=0;bottom=0;right=0;overflow=hidden;strokeColor=none;" vertex="1" parent="8inwFE-MQz8HEBYmpQ9X-19">
          <mxGeometry width="257" height="20" as="geometry" />
        </mxCell>
        <mxCell id="8inwFE-MQz8HEBYmpQ9X-21" value=".shp&lt;sup&gt;+&lt;/sup&gt;" style="shape=partialRectangle;html=1;whiteSpace=wrap;connectable=0;fillColor=none;top=0;left=0;bottom=0;right=0;overflow=hidden;strokeColor=none;" vertex="1" parent="8inwFE-MQz8HEBYmpQ9X-19">
          <mxGeometry x="257" width="256" height="20" as="geometry" />
        </mxCell>
        <mxCell id="8inwFE-MQz8HEBYmpQ9X-34" style="shape=partialRectangle;html=1;whiteSpace=wrap;collapsible=0;dropTarget=0;pointerEvents=0;fillColor=none;top=0;left=0;bottom=0;right=0;points=[[0,0.5],[1,0.5]];portConstraint=eastwest;strokeColor=none;" vertex="1" parent="8inwFE-MQz8HEBYmpQ9X-0">
          <mxGeometry y="130" width="513" height="20" as="geometry" />
        </mxCell>
        <mxCell id="8inwFE-MQz8HEBYmpQ9X-35" value="Flood areas*" style="shape=partialRectangle;html=1;whiteSpace=wrap;connectable=0;fillColor=none;top=0;left=0;bottom=0;right=0;overflow=hidden;strokeColor=none;" vertex="1" parent="8inwFE-MQz8HEBYmpQ9X-34">
          <mxGeometry width="257" height="20" as="geometry" />
        </mxCell>
        <mxCell id="8inwFE-MQz8HEBYmpQ9X-36" value=".shp&lt;sup&gt;+&lt;/sup&gt;" style="shape=partialRectangle;html=1;whiteSpace=wrap;connectable=0;fillColor=none;top=0;left=0;bottom=0;right=0;overflow=hidden;strokeColor=none;" vertex="1" parent="8inwFE-MQz8HEBYmpQ9X-34">
          <mxGeometry x="257" width="256" height="20" as="geometry" />
        </mxCell>
        <mxCell id="8inwFE-MQz8HEBYmpQ9X-40" style="shape=partialRectangle;html=1;whiteSpace=wrap;collapsible=0;dropTarget=0;pointerEvents=0;fillColor=none;top=0;left=0;bottom=0;right=0;points=[[0,0.5],[1,0.5]];portConstraint=eastwest;strokeColor=none;" vertex="1" parent="8inwFE-MQz8HEBYmpQ9X-0">
          <mxGeometry y="150" width="513" height="20" as="geometry" />
        </mxCell>
        <mxCell id="8inwFE-MQz8HEBYmpQ9X-41" value="Green belt*" style="shape=partialRectangle;html=1;whiteSpace=wrap;connectable=0;fillColor=none;top=0;left=0;bottom=0;right=0;overflow=hidden;strokeColor=none;" vertex="1" parent="8inwFE-MQz8HEBYmpQ9X-40">
          <mxGeometry width="257" height="20" as="geometry" />
        </mxCell>
        <mxCell id="8inwFE-MQz8HEBYmpQ9X-42" value=".shp&lt;sup&gt;+&lt;/sup&gt;" style="shape=partialRectangle;html=1;whiteSpace=wrap;connectable=0;fillColor=none;top=0;left=0;bottom=0;right=0;overflow=hidden;strokeColor=none;" vertex="1" parent="8inwFE-MQz8HEBYmpQ9X-40">
          <mxGeometry x="257" width="256" height="20" as="geometry" />
        </mxCell>
        <mxCell id="8inwFE-MQz8HEBYmpQ9X-37" style="shape=partialRectangle;html=1;whiteSpace=wrap;collapsible=0;dropTarget=0;pointerEvents=0;fillColor=none;top=0;left=0;bottom=0;right=0;points=[[0,0.5],[1,0.5]];portConstraint=eastwest;strokeColor=none;" vertex="1" parent="8inwFE-MQz8HEBYmpQ9X-0">
          <mxGeometry y="170" width="513" height="20" as="geometry" />
        </mxCell>
        <mxCell id="8inwFE-MQz8HEBYmpQ9X-38" value="Nature conservation areas*" style="shape=partialRectangle;html=1;whiteSpace=wrap;connectable=0;fillColor=none;top=0;left=0;bottom=0;right=0;overflow=hidden;strokeColor=none;" vertex="1" parent="8inwFE-MQz8HEBYmpQ9X-37">
          <mxGeometry width="257" height="20" as="geometry" />
        </mxCell>
        <mxCell id="8inwFE-MQz8HEBYmpQ9X-39" value=".shp&lt;sup&gt;+&lt;/sup&gt;" style="shape=partialRectangle;html=1;whiteSpace=wrap;connectable=0;fillColor=none;top=0;left=0;bottom=0;right=0;overflow=hidden;strokeColor=none;" vertex="1" parent="8inwFE-MQz8HEBYmpQ9X-37">
          <mxGeometry x="257" width="256" height="20" as="geometry" />
        </mxCell>
        <mxCell id="8inwFE-MQz8HEBYmpQ9X-43" style="shape=partialRectangle;html=1;whiteSpace=wrap;collapsible=0;dropTarget=0;pointerEvents=0;fillColor=none;top=0;left=0;bottom=0;right=0;points=[[0,0.5],[1,0.5]];portConstraint=eastwest;strokeColor=none;" vertex="1" parent="8inwFE-MQz8HEBYmpQ9X-0">
          <mxGeometry y="190" width="513" height="20" as="geometry" />
        </mxCell>
        <mxCell id="8inwFE-MQz8HEBYmpQ9X-44" value="Histroic conservation areas*" style="shape=partialRectangle;html=1;whiteSpace=wrap;connectable=0;fillColor=none;top=0;left=0;bottom=0;right=0;overflow=hidden;strokeColor=none;" vertex="1" parent="8inwFE-MQz8HEBYmpQ9X-43">
          <mxGeometry width="257" height="20" as="geometry" />
        </mxCell>
        <mxCell id="8inwFE-MQz8HEBYmpQ9X-45" value=".shp&lt;sup&gt;+&lt;/sup&gt;" style="shape=partialRectangle;html=1;whiteSpace=wrap;connectable=0;fillColor=none;top=0;left=0;bottom=0;right=0;overflow=hidden;strokeColor=none;" vertex="1" parent="8inwFE-MQz8HEBYmpQ9X-43">
          <mxGeometry x="257" width="256" height="20" as="geometry" />
        </mxCell>
        <mxCell id="8inwFE-MQz8HEBYmpQ9X-25" style="shape=partialRectangle;html=1;whiteSpace=wrap;collapsible=0;dropTarget=0;pointerEvents=0;fillColor=none;top=0;left=0;bottom=0;right=0;points=[[0,0.5],[1,0.5]];portConstraint=eastwest;strokeColor=none;" vertex="1" parent="8inwFE-MQz8HEBYmpQ9X-0">
          <mxGeometry y="210" width="513" height="20" as="geometry" />
        </mxCell>
        <mxCell id="8inwFE-MQz8HEBYmpQ9X-26" value="Population data" style="shape=partialRectangle;html=1;whiteSpace=wrap;connectable=0;fillColor=none;top=0;left=0;bottom=0;right=0;overflow=hidden;strokeColor=none;" vertex="1" parent="8inwFE-MQz8HEBYmpQ9X-25">
          <mxGeometry width="257" height="20" as="geometry" />
        </mxCell>
        <mxCell id="8inwFE-MQz8HEBYmpQ9X-27" value=".csv" style="shape=partialRectangle;html=1;whiteSpace=wrap;connectable=0;fillColor=none;top=0;left=0;bottom=0;right=0;overflow=hidden;strokeColor=none;" vertex="1" parent="8inwFE-MQz8HEBYmpQ9X-25">
          <mxGeometry x="257" width="256" height="20" as="geometry" />
        </mxCell>
        <mxCell id="8inwFE-MQz8HEBYmpQ9X-31" style="shape=partialRectangle;html=1;whiteSpace=wrap;collapsible=0;dropTarget=0;pointerEvents=0;fillColor=none;top=0;left=0;bottom=0;right=0;points=[[0,0.5],[1,0.5]];portConstraint=eastwest;strokeColor=none;" vertex="1" parent="8inwFE-MQz8HEBYmpQ9X-0">
          <mxGeometry y="230" width="513" height="20" as="geometry" />
        </mxCell>
        <mxCell id="8inwFE-MQz8HEBYmpQ9X-32" value="Population boundaries" style="shape=partialRectangle;html=1;whiteSpace=wrap;connectable=0;fillColor=none;top=0;left=0;bottom=0;right=0;overflow=hidden;strokeColor=none;" vertex="1" parent="8inwFE-MQz8HEBYmpQ9X-31">
          <mxGeometry width="257" height="20" as="geometry" />
        </mxCell>
        <mxCell id="8inwFE-MQz8HEBYmpQ9X-33" value=".shp" style="shape=partialRectangle;html=1;whiteSpace=wrap;connectable=0;fillColor=none;top=0;left=0;bottom=0;right=0;overflow=hidden;strokeColor=none;" vertex="1" parent="8inwFE-MQz8HEBYmpQ9X-31">
          <mxGeometry x="257" width="256" height="20" as="geometry" />
        </mxCell>
        <mxCell id="8inwFE-MQz8HEBYmpQ9X-60" style="shape=partialRectangle;html=1;whiteSpace=wrap;collapsible=0;dropTarget=0;pointerEvents=0;fillColor=none;top=0;left=0;bottom=0;right=0;points=[[0,0.5],[1,0.5]];portConstraint=eastwest;strokeColor=none;" vertex="1" parent="8inwFE-MQz8HEBYmpQ9X-0">
          <mxGeometry y="250" width="513" height="20" as="geometry" />
        </mxCell>
        <mxCell id="8inwFE-MQz8HEBYmpQ9X-61" value="Result metadata" style="shape=partialRectangle;html=1;whiteSpace=wrap;connectable=0;fillColor=none;top=0;left=0;bottom=0;right=0;overflow=hidden;strokeColor=none;" vertex="1" parent="8inwFE-MQz8HEBYmpQ9X-60">
          <mxGeometry width="257" height="20" as="geometry" />
        </mxCell>
        <mxCell id="8inwFE-MQz8HEBYmpQ9X-62" value=".csv" style="shape=partialRectangle;html=1;whiteSpace=wrap;connectable=0;fillColor=none;top=0;left=0;bottom=0;right=0;overflow=hidden;strokeColor=none;" vertex="1" parent="8inwFE-MQz8HEBYmpQ9X-60">
          <mxGeometry x="257" width="256" height="20" as="geometry" />
        </mxCell>
        <mxCell id="8inwFE-MQz8HEBYmpQ9X-28" style="shape=partialRectangle;html=1;whiteSpace=wrap;collapsible=0;dropTarget=0;pointerEvents=0;fillColor=none;top=0;left=0;bottom=0;right=0;points=[[0,0.5],[1,0.5]];portConstraint=eastwest;strokeColor=none;" vertex="1" parent="8inwFE-MQz8HEBYmpQ9X-0">
          <mxGeometry y="270" width="513" height="20" as="geometry" />
        </mxCell>
        <mxCell id="8inwFE-MQz8HEBYmpQ9X-29" value="Building tiles" style="shape=partialRectangle;html=1;whiteSpace=wrap;connectable=0;fillColor=none;top=0;left=0;bottom=0;right=0;overflow=hidden;strokeColor=none;" vertex="1" parent="8inwFE-MQz8HEBYmpQ9X-28">
          <mxGeometry width="257" height="20" as="geometry" />
        </mxCell>
        <mxCell id="8inwFE-MQz8HEBYmpQ9X-30" value="???" style="shape=partialRectangle;html=1;whiteSpace=wrap;connectable=0;fillColor=none;top=0;left=0;bottom=0;right=0;overflow=hidden;strokeColor=none;" vertex="1" parent="8inwFE-MQz8HEBYmpQ9X-28">
          <mxGeometry x="257" width="256" height="20" as="geometry" />
        </mxCell>
        <mxCell id="8inwFE-MQz8HEBYmpQ9X-52" style="shape=partialRectangle;html=1;whiteSpace=wrap;collapsible=0;dropTarget=0;pointerEvents=0;fillColor=none;top=0;left=0;bottom=0;right=0;points=[[0,0.5],[1,0.5]];portConstraint=eastwest;strokeColor=none;" vertex="1" parent="8inwFE-MQz8HEBYmpQ9X-0">
          <mxGeometry y="290" width="513" height="20" as="geometry" />
        </mxCell>
        <mxCell id="8inwFE-MQz8HEBYmpQ9X-53" style="shape=partialRectangle;html=1;whiteSpace=wrap;connectable=0;fillColor=none;top=0;left=0;bottom=0;right=0;overflow=hidden;strokeColor=none;" vertex="1" parent="8inwFE-MQz8HEBYmpQ9X-52">
          <mxGeometry width="257" height="20" as="geometry" />
        </mxCell>
        <mxCell id="8inwFE-MQz8HEBYmpQ9X-54" style="shape=partialRectangle;html=1;whiteSpace=wrap;connectable=0;fillColor=none;top=0;left=0;bottom=0;right=0;overflow=hidden;strokeColor=none;" vertex="1" parent="8inwFE-MQz8HEBYmpQ9X-52">
          <mxGeometry x="257" width="256" height="20" as="geometry" />
        </mxCell>
        <mxCell id="8inwFE-MQz8HEBYmpQ9X-49" style="shape=partialRectangle;html=1;whiteSpace=wrap;collapsible=0;dropTarget=0;pointerEvents=0;fillColor=none;top=0;left=0;bottom=0;right=0;points=[[0,0.5],[1,0.5]];portConstraint=eastwest;strokeColor=none;" vertex="1" parent="8inwFE-MQz8HEBYmpQ9X-0">
          <mxGeometry y="310" width="513" height="20" as="geometry" />
        </mxCell>
        <mxCell id="8inwFE-MQz8HEBYmpQ9X-50" value="Development suitability" style="shape=partialRectangle;html=1;whiteSpace=wrap;connectable=0;fillColor=none;top=0;left=0;bottom=0;right=0;overflow=hidden;strokeColor=none;" vertex="1" parent="8inwFE-MQz8HEBYmpQ9X-49">
          <mxGeometry width="257" height="20" as="geometry" />
        </mxCell>
        <mxCell id="8inwFE-MQz8HEBYmpQ9X-51" value="???" style="shape=partialRectangle;html=1;whiteSpace=wrap;connectable=0;fillColor=none;top=0;left=0;bottom=0;right=0;overflow=hidden;strokeColor=none;" vertex="1" parent="8inwFE-MQz8HEBYmpQ9X-49">
          <mxGeometry x="257" width="256" height="20" as="geometry" />
        </mxCell>
        <mxCell id="8inwFE-MQz8HEBYmpQ9X-55" style="shape=partialRectangle;html=1;whiteSpace=wrap;collapsible=0;dropTarget=0;pointerEvents=0;fillColor=none;top=0;left=0;bottom=0;right=0;points=[[0,0.5],[1,0.5]];portConstraint=eastwest;strokeColor=none;" vertex="1" parent="8inwFE-MQz8HEBYmpQ9X-0">
          <mxGeometry y="330" width="513" height="20" as="geometry" />
        </mxCell>
        <mxCell id="8inwFE-MQz8HEBYmpQ9X-56" value="New buildings" style="shape=partialRectangle;html=1;whiteSpace=wrap;connectable=0;fillColor=none;top=0;left=0;bottom=0;right=0;overflow=hidden;strokeColor=none;" vertex="1" parent="8inwFE-MQz8HEBYmpQ9X-55">
          <mxGeometry width="257" height="20" as="geometry" />
        </mxCell>
        <mxCell id="8inwFE-MQz8HEBYmpQ9X-57" value=".geojson" style="shape=partialRectangle;html=1;whiteSpace=wrap;connectable=0;fillColor=none;top=0;left=0;bottom=0;right=0;overflow=hidden;strokeColor=none;" vertex="1" parent="8inwFE-MQz8HEBYmpQ9X-55">
          <mxGeometry x="257" width="256" height="20" as="geometry" />
        </mxCell>
        <mxCell id="8inwFE-MQz8HEBYmpQ9X-48" value="Notes:&lt;br&gt;*Optional datasets&lt;br&gt;+Data converted to .asci grid format from .shp, so potential to accept raster datasets if using the same griding scale. E.g. 100x100m" style="text;html=1;strokeColor=none;fillColor=none;align=left;verticalAlign=top;whiteSpace=wrap;rounded=0;" vertex="1" parent="gkHT4bu3b0f0jtjOqA4o-1">
          <mxGeometry x="1110" y="630" width="460" height="100" as="geometry" />
        </mxCell>
        <mxCell id="8inwFE-MQz8HEBYmpQ9X-58" value="&lt;div&gt;Result &lt;br&gt;&lt;/div&gt;&lt;div&gt;metadata&lt;/div&gt;" style="shape=parallelogram;html=1;strokeWidth=2;perimeter=parallelogramPerimeter;whiteSpace=wrap;rounded=1;arcSize=12;size=0.23;" vertex="1" parent="gkHT4bu3b0f0jtjOqA4o-1">
          <mxGeometry x="846.26" y="580" width="109.07" height="60" as="geometry" />
        </mxCell>
      </root>
    </mxGraphModel>
  </diagram>
</mxfile>
